<?xml version="1.0" standalone="no"?>
<!DOCTYPE svg PUBLIC "-//W3C//DTD SVG 20010904//EN"
 "http://www.w3.org/TR/2001/REC-SVG-20010904/DTD/svg10.dtd">
<svg version="1.0" xmlns="http://www.w3.org/2000/svg"
 width="200.000000pt" height="200.000000pt" viewBox="0 0 200.000000 200.000000"
 preserveAspectRatio="xMidYMid meet">
<metadata>
Created by potrace 1.16, written by Peter Selinger 2001-2019
</metadata>
<g transform="translate(0.000000,200.000000) scale(0.100000,-0.100000)"
fill="#000000" stroke="none">
<path d="M810 1631 c-99 -20 -142 -82 -148 -214 l-4 -88 28 8 c16 4 57 8 90 8
l62 0 5 43 c6 52 29 80 73 88 l34 6 0 79 0 79 -52 -1 c-29 -1 -69 -4 -88 -8z"/>
<path d="M1390 1563 l0 -81 34 -6 c64 -12 70 -30 76 -205 4 -128 8 -162 23
-184 9 -15 23 -27 29 -27 6 0 -1 -11 -15 -24 -34 -31 -35 -41 -40 -221 -4
-167 -20 -226 -78 -281 -16 -15 -29 -36 -29 -47 0 -18 6 -19 78 -15 99 4 148
28 182 89 23 41 25 55 28 214 2 96 8 175 14 183 6 6 26 12 44 12 l34 0 0 80
c0 77 -1 80 -23 80 -12 0 -32 7 -44 15 -20 14 -21 25 -25 187 -4 184 -10 209
-60 254 -39 36 -64 44 -148 51 l-80 6 0 -80z"/>
<path d="M1014 1326 c-12 -32 7 -36 177 -36 l170 0 -3 23 c-3 22 -5 22 -171
25 -140 2 -168 0 -173 -12z"/>
<path d="M697 1260 c-20 -5 -56 -19 -78 -31 -45 -23 -124 -99 -134 -128 -4
-14 -19 -19 -68 -23 -149 -12 -269 -131 -284 -281 -7 -70 20 -107 77 -107 50
0 76 27 83 87 10 88 64 134 170 142 88 7 117 24 158 91 88 143 247 124 328
-37 24 -48 30 -50 143 -56 86 -4 118 -19 148 -70 42 -68 14 -156 -60 -194 -39
-20 -60 -23 -162 -23 -124 0 -159 9 -177 44 -6 12 -12 90 -14 186 l-2 165 -35
3 c-45 3 -92 -26 -113 -71 -14 -29 -17 -67 -17 -209 0 -154 2 -177 20 -205 40
-66 50 -68 295 -68 205 0 223 1 267 22 157 72 224 272 143 422 -52 95 -138
151 -245 159 -63 4 -66 6 -90 44 -67 107 -227 169 -353 138z"/>
</g>
</svg>
